<?xml version="1.0" encoding="utf-8"?>
<!-- Generator: Adobe Illustrator 16.2.0, SVG Export Plug-In . SVG Version: 6.00 Build 0)  -->
<!DOCTYPE svg PUBLIC "-//W3C//DTD SVG 1.1//EN" "http://www.w3.org/Graphics/SVG/1.1/DTD/svg11.dtd">
<svg version="1.1" id="Layer_1" xmlns="http://www.w3.org/2000/svg" xmlns:xlink="http://www.w3.org/1999/xlink" x="0px" y="0px"
	 width="20px" height="20px" viewBox="-310 393.5 20 20" enable-background="new -310 393.5 20 20" xml:space="preserve">
<g>
	<g>
		<path fill="#FDC47F" d="M-292.523,409.753c0-0.354-0.013-0.722-0.038-1.09c-0.025-0.352-0.074-0.738-0.148-1.127
			c-0.072-0.42-0.167-0.807-0.281-1.158c-0.115-0.352-0.268-0.703-0.458-1.021c-0.189-0.35-0.411-0.631-0.659-0.844
			c-0.25-0.246-0.553-0.422-0.91-0.563c-0.358-0.141-0.754-0.211-1.187-0.211c-0.062,0-0.21,0.07-0.446,0.213
			c-0.234,0.141-0.5,0.316-0.792,0.492c-0.295,0.209-0.678,0.368-1.15,0.525c-0.473,0.143-0.947,0.213-1.42,0.213
			c-0.476,0-0.949-0.07-1.421-0.213c-0.471-0.157-0.855-0.316-1.149-0.525c-0.293-0.176-0.558-0.352-0.792-0.492
			c-0.235-0.143-0.383-0.213-0.447-0.213c-0.433,0-0.829,0.07-1.188,0.211c-0.357,0.141-0.66,0.316-0.909,0.563
			c-0.248,0.213-0.467,0.494-0.659,0.844c-0.191,0.318-0.345,0.67-0.458,1.021c-0.114,0.352-0.208,0.738-0.281,1.158
			c-0.075,0.389-0.125,0.775-0.148,1.127c-0.026,0.368-0.039,0.736-0.039,1.09c0,0.844,0.259,1.512,0.776,2.004
			c0.519,0.492,1.207,0.738,2.065,0.738h9.3c0.859,0,1.546-0.246,2.064-0.738c0.519-0.492,0.776-1.16,0.776-2.004H-292.523z"/>
		<path fill="#FDC47F" d="M-303.49,401.7c0.166,0.248,0.366,0.494,0.601,0.738c0.799,0.775,1.761,1.195,2.89,1.195
			s2.091-0.42,2.888-1.195c0.247-0.246,0.453-0.492,0.624-0.773c1.043,0.07,1.298-1.617,0.575-2.107c0-1.125-0.399-2.074-1.198-2.85
			c-0.797-0.807-1.759-1.195-2.888-1.195s-2.091,0.389-2.89,1.195c-0.797,0.775-1.196,1.725-1.196,2.85
			C-304.723,399.874-304.66,401.632-303.49,401.7z"/>
	</g>
	<g>
		<path d="M-292.039,408.628c-0.027-0.37-0.078-0.773-0.155-1.197c-0.072-0.42-0.173-0.825-0.299-1.229
			c-0.125-0.387-0.293-0.74-0.499-1.125c-0.213-0.354-0.466-0.703-0.751-0.951c-0.297-0.281-0.658-0.525-1.074-0.668
			c-0.414-0.175-0.876-0.246-1.375-0.246c-0.181,0-0.363,0.07-0.724,0.283l-0.792,0.525c-0.101,0.07-0.217,0.107-0.344,0.178
			c-0.201,0.104-0.43,0.176-0.686,0.279c-0.167,0.037-0.333,0.072-0.505,0.107c-0.056,0.033-0.11,0.033-0.171,0.035l-0.108,0.033
			c-0.191,0.002-0.321,0.107-0.408,0.213c-0.079,0.033-0.155,0-0.254,0c-0.102-0.107-0.253-0.213-0.485-0.248l-0.119-0.033
			c-0.159-0.035-0.318-0.07-0.477-0.107c-0.258-0.104-0.486-0.176-0.686-0.279c-0.128-0.07-0.243-0.107-0.345-0.178l-0.791-0.525
			c-0.358-0.213-0.541-0.283-0.724-0.283c-0.498,0-0.961,0.071-1.374,0.246c-0.417,0.143-0.781,0.387-1.076,0.668
			c-0.283,0.248-0.535,0.598-0.75,0.951c-0.208,0.385-0.377,0.755-0.5,1.125c-0.122,0.387-0.222,0.807-0.297,1.229
			c-0.078,0.424-0.129,0.844-0.156,1.197c-0.026,0.385-0.038,0.738-0.038,1.229c-0.001,0.949,0.315,1.725,0.94,2.287
			c0.614,0.563,1.425,0.86,2.411,0.86h9.301c0.986,0,1.797-0.298,2.409-0.86c0.625-0.563,0.941-1.338,0.939-2.391
			C-292,409.366-292.012,409.013-292.039,408.628z"/>
		<path d="M-303.787,402.159c0.157,0.211,0.337,0.422,0.537,0.633c0.895,0.879,1.989,1.336,3.251,1.336
			c1.263,0,2.356-0.457,3.249-1.336c0.204-0.211,0.388-0.422,0.548-0.635c0.527-0.104,0.948-0.492,1.126-1.09
			c0.166-0.563,0.093-1.299-0.333-1.723c-0.053-1.16-0.504-2.178-1.341-3.005c-0.893-0.896-1.986-1.336-3.249-1.336
			c-1.262,0-2.356,0.44-3.251,1.336c-0.832,0.827-1.282,1.812-1.338,2.972c-0.381,0.385-0.481,1.053-0.364,1.582
			C-304.81,401.562-304.374,402.019-303.787,402.159z M-304.085,399.558c0,0.387,0.048,0.771,0.145,1.123
			c0.135-0.579,0.238-1.053,0.536-1.475c1.979-0.019,3.937-0.07,4.896-1.406c0.382,0.914,1.148,1.158,1.892,1.441
			c0.044,0.561,0.121,0.773,0.541,1.477c0.108-0.353,0.162-0.74,0.162-1.16c0.723,0.49,0.469,2.178-0.575,2.107
			c-0.171,0.281-0.377,0.527-0.624,0.773c-0.797,0.775-1.759,1.195-2.888,1.195s-2.091-0.42-2.89-1.195
			c-0.235-0.244-0.435-0.49-0.601-0.738C-304.66,401.632-304.723,399.874-304.085,399.558z"/>
	</g>
	<path fill="#2F7C27" d="M-304.649,412.495c-0.857,0-1.546-0.246-2.064-0.738c-0.519-0.492-0.778-1.16-0.777-2.004
		c0-0.354,0.012-0.738,0.037-1.09c0.025-0.353,0.075-0.738,0.149-1.16c0.074-0.389,0.167-0.775,0.281-1.127
		c0.114-0.352,0.267-0.703,0.457-1.036c0.192-0.334,0.412-0.616,0.661-0.86c0.248-0.246,0.55-0.423,0.91-0.563
		c0.358-0.141,0.753-0.211,1.186-0.211c0.063,0,0.212,0.07,0.445,0.228c0.235,0.157,0.499,0.333,0.794,0.509
		c0.119,0.072,0.253,0.143,0.402,0.213c0.218,0.105,0.466,0.209,0.747,0.281c0.177,0.069,0.355,0.105,0.534,0.141
		c0.035,0.033,0.069,0.033,0.104,0.033c0.041,0.002,0.081,0.002,0.121,0.002c0.219,0.035,0.472,1.125,0.662,1.406
		c0.134-0.211,0.355-1.338,0.533-1.373c0.044,0,0.087,0,0.132-0.033c0.066,0,0.13-0.002,0.197-0.035
		c0.185-0.035,0.371-0.07,0.558-0.141c0.278-0.072,0.527-0.176,0.744-0.281c0.151-0.07,0.287-0.141,0.406-0.213
		c0.292-0.176,0.558-0.352,0.792-0.509c0.235-0.157,0.384-0.228,0.445-0.228c0.434,0,0.829,0.07,1.187,0.211
		c0.357,0.14,0.661,0.316,0.91,0.563c0.249,0.244,0.469,0.526,0.659,0.86c0.19,0.333,0.343,0.685,0.458,1.036
		c0.113,0.352,0.209,0.738,0.281,1.127c0.075,0.422,0.124,0.808,0.148,1.16c0.026,0.352,0.039,0.736,0.039,1.09h0.002
		c0,0.844-0.258,1.512-0.776,2.004c-0.518,0.492-1.218,0.738-2.077,0.738"/>
</g>
</svg>
